<?xml version="1.0" encoding="utf-8"?>
<!-- Generator: Adobe Illustrator 16.0.4, SVG Export Plug-In . SVG Version: 6.00 Build 0)  -->
<!DOCTYPE svg PUBLIC "-//W3C//DTD SVG 1.1//EN" "http://www.w3.org/Graphics/SVG/1.1/DTD/svg11.dtd">
<svg version="1.1" id="Layer_1" xmlns="http://www.w3.org/2000/svg" xmlns:xlink="http://www.w3.org/1999/xlink" x="0px" y="0px"
	 width="393.285px" height="398.98px" viewBox="0 0 393.285 398.98" enable-background="new 0 0 393.285 398.98"
	 xml:space="preserve">
<g>
	<path fill-rule="evenodd" clip-rule="evenodd" d="M18.387,114.166c-0.164-2.295-0.365-4.263-0.433-6.234
		c-0.218-6.268,0.564-12.451,1.734-18.59c1.534-8.053,3.693-15.923,6.967-23.465c2.579-5.942,6.293-11.13,10.586-15.912
		c9.342-10.406,20.125-18.973,32.757-25.072c6.077-2.934,12.433-5.086,19.189-5.846c4.579-0.515,9.159-0.363,13.713,0.222
		c7.458,0.959,14.93,1.466,22.454,1.28c3.832-0.095,7.406-1.277,11.017-2.315c10.936-3.145,22.081-5.308,33.278-7.237
		c0.093-0.016,0.19-0.002,0.19-0.002c-3.705,1.062-7.56,1.958-11.26,3.287c-3.777,1.356-7.476,2.988-11.071,4.776
		c-3.569,1.775-7.062,3.746-10.413,5.903c-3.379,2.176-6.683,4.519-9.76,7.097c-3.048,2.554-5.772,5.493-8.639,8.264
		c0.051,0.118,0.102,0.235,0.153,0.353c0.464,0,0.93,0.009,1.394-0.001c7.764-0.179,15.529-0.365,23.293-0.541
		c8.124-0.185,16.249-0.315,24.36,0.311c1.669,0.129,3.323,0.437,4.984,0.663c0.005,0.085,0.011,0.17,0.016,0.254
		c-0.283,0.133-0.559,0.283-0.849,0.397c-7.319,2.896-14.431,6.238-21.075,10.461c-7.119,4.525-13.152,10.257-18.012,17.185
		c-0.067,0.096-0.108,0.21-0.217,0.428c13.235,0.133,26.171,1.669,38.929,5.541c-3.005,0.653-5.861,1.238-8.699,1.901
		c-2.338,0.545-4.659,1.164-6.979,1.783c-4.856,1.297-8.5,4.346-11.622,8.126c-4.49,5.439-7.959,11.539-11.382,17.665
		c-2.47,4.42-4.689,8.991-7.349,13.291c-8.232,13.309-19.224,23.884-32.523,32.079c-2.208,1.361-4.508,2.574-6.787,3.814
		c-0.551,0.3-1.19,0.439-1.946,0.708c-3.362-15.039-6.692-29.929-10.083-45.099c-1.016,1.64-1.91,3.021-2.742,4.439
		c-6.171,10.517-11.208,21.524-14.295,33.359c-1.528,5.859-2.655,11.784-2.526,17.884c0.007,0.323-0.103,0.729-0.31,0.964
		c-3.433,3.905-6.89,7.789-10.343,11.676c-0.041,0.045-0.107,0.067-0.361,0.22c-0.157-0.94-0.463-1.811-0.417-2.662
		c0.223-4.084,0.436-8.175,0.853-12.242c0.503-4.909,1.209-9.797,1.823-14.694c0.032-0.255,0.031-0.515,0.047-0.816
		c-0.12,0.03-0.229,0.023-0.277,0.074c-5.975,6.205-11.94,12.431-16.922,19.484c-1.598,2.263-2.747,4.844-4.093,7.284
		c-0.184,0.333-0.322,0.693-0.595,1.29c-0.057-0.486-0.117-0.716-0.105-0.941c0.274-5.025,0.492-10.056,0.855-15.075
		c0.329-4.545,1.106-9.017,2.667-13.328c2.197-6.068,5.489-11.539,9.175-16.786c6.616-9.418,14.258-17.957,22.45-26.018
		c0.227-0.223,0.507-0.392,0.763-0.586c-0.051-0.073-0.103-0.146-0.154-0.219C46.083,106.66,32.371,110.376,18.387,114.166z
		 M83.601,76.359c9.952-0.027,17.974-8.058,17.976-17.993c0.001-9.971-8.087-18.019-18.075-17.985
		c-9.917,0.033-17.979,8.14-17.939,18.037C65.602,68.341,73.691,76.387,83.601,76.359z"/>
	<path fill-rule="evenodd" clip-rule="evenodd" d="M53.985,241.594c0.019-8.138,2.736-15.566,4.759-23.139
		c0.946-3.542,1.899-7.082,2.851-10.622c0.074-0.273,0.159-0.543,0.293-1.003c1.087,3.159,2.059,6.149,3.144,9.098
		c3.013,8.189,6.078,16.359,9.104,24.544c0.186,0.502,0.301,1.065,0.294,1.599c-0.119,10.329,0.854,20.568,2.516,30.751
		c0.622,3.812,1.31,7.612,1.963,11.42c0.048,0.279,0.053,0.566,0.098,1.084c-1.842-1.128-3.551-2.113-5.198-3.191
		c-6.002-3.931-11.084-8.924-15.881-14.186c-4.968-5.449-9.716-11.099-14.56-16.661c-0.297-0.341-0.588-0.687-1.004-1.172
		c-0.021,9.954,1.004,19.621,3.098,29.182c2.089,9.539,5.021,18.786,9.54,27.497c-0.086,0.06-0.173,0.119-0.259,0.179
		c-1.358-1.013-2.744-1.992-4.069-3.046c-5.472-4.349-10.217-9.44-14.68-14.777c-4.646-5.556-9.084-11.286-13.604-16.947
		c-0.218-0.273-0.416-0.593-0.517-0.923c-2.627-8.564-5.1-17.167-6.713-25.996c-1.562-8.554-2.475-17.161-2.383-25.866
		c0.027-2.592,0.004-5.185,0.112-7.802c1.348,6.959,3.375,13.695,6.287,20.154c2.93,6.498,6.609,12.481,12.001,17.587
		c0.202-1.96,0.44-3.746,0.561-5.54c0.3-4.44,0.475-8.891,0.831-13.327c0.543-6.768,1.315-13.509,2.904-20.128
		c0.026-0.109,0.061-0.216,0.211-0.364C38.851,222.196,44.194,233.108,53.985,241.594z"/>
	<path fill-rule="evenodd" clip-rule="evenodd" d="M336.162,299.493c-3.473,2.215-6.97,4.394-10.414,6.65
		c-10.986,7.2-22.359,13.701-34.351,19.092c-0.427,0.192-0.866,0.358-1.3,0.537c-0.051-0.067-0.103-0.134-0.154-0.2
		c0.889-1.188,1.742-2.403,2.673-3.557c5.23-6.481,9.58-13.493,12.824-21.175c2.387-5.651,4.114-11.48,4.714-17.609
		c0.057-0.582,0.082-1.166,0.109-1.75c0.009-0.188-0.027-0.377-0.055-0.728c-0.383,0.205-0.724,0.312-0.967,0.529
		c-3.085,2.752-6.769,4.492-10.553,5.947c-7.99,3.072-16.05,5.967-24.083,8.93c-0.169,0.062-0.356,0.075-0.548,0.113
		c1.338-1.379,2.618-2.756,3.959-4.071c6.079-5.969,12.062-12.021,16.931-19.066c0.352-0.508,0.96-0.857,1.493-1.216
		c7.157-4.806,13.969-10.055,20.426-15.77c3.909-3.459,7.308-7.389,10.721-11.311c0.272-0.313,0.485-0.678,0.727-1.019
		c0.132,0.063,0.265,0.128,0.396,0.192c0.08,1.018,0.213,2.035,0.232,3.055c0.165,8.641-0.566,17.184-2.586,25.615
		c-1.64,6.849-3.225,13.706-5.536,20.37c-0.083,0.239-0.125,0.494-0.228,0.913c16.17-11.483,29.688-25.222,39.51-42.433
		c0.113,0.047,0.227,0.094,0.341,0.141c-0.12,2.412-0.104,4.841-0.381,7.234c-1.309,11.306-4.466,22.187-7.815,33.01
		c-2.07,6.691-4.323,13.327-6.512,19.983c-0.138,0.418-0.387,0.818-0.655,1.174c-7.285,9.66-15.707,18.283-24.492,26.552
		c-4.56,4.292-9.367,8.32-14.062,12.467c-0.067-0.069-0.134-0.14-0.201-0.209c0.481-0.489,0.945-0.996,1.445-1.467
		c9.72-9.149,17.27-19.877,23.055-31.866c2.574-5.336,4.583-10.883,5.628-16.739c0.126-0.704,0.018-1.45,0.018-2.177
		C336.367,299.589,336.265,299.541,336.162,299.493z"/>
	<path fill-rule="evenodd" clip-rule="evenodd" d="M270.91,79.678c1.848,0.343,3.681,0.556,5.442,1.033
		c6.635,1.795,12.877,4.611,19.073,7.529c6.145,2.893,12.064,6.197,17.84,9.768c1.322,0.817,2.721,1.51,4.311,2.385
		c-3.272-9.434-7.74-17.994-12.964-26.191c-5.229-8.205-11.21-15.814-18.099-22.718c0.079-0.098,0.158-0.196,0.236-0.294
		c0.763,0.211,1.538,0.384,2.285,0.638c9.293,3.163,18.049,7.481,26.353,12.667c8.729,5.452,17.308,11.143,25.942,16.745
		c0.369,0.239,0.673,0.606,0.947,0.961c10.416,13.443,18.844,28.06,25.693,43.604c0.418,0.95,0.839,1.898,1.253,2.85
		c0.02,0.045-0.012,0.113-0.031,0.262c-0.442-0.798-0.86-1.525-1.254-2.266c-4.761-8.95-11.105-16.693-18.238-23.819
		c-5.278-5.273-10.919-10.115-17.498-13.73c-1.639-0.901-3.409-1.563-5.384-2.455c0.146,0.642,0.207,1.003,0.312,1.351
		c2.208,7.363,4.459,14.713,6.623,22.089c2.211,7.537,4.209,15.13,5.462,22.897c0.176,1.089,0.326,2.184,0.447,3.281
		c0.055,0.495,0.009,1.001,0.009,1.502c-0.104,0.046-0.21,0.092-0.314,0.137c-0.379-0.438-0.808-0.842-1.128-1.319
		c-4.839-7.212-10.812-13.372-17.473-18.899c-5.177-4.295-11.077-7.334-17.215-9.964c-0.341-0.146-0.723-0.198-1.166-0.316
		c0.91,4.33,1.951,8.5,2.628,12.728c0.688,4.291,1.08,8.634,1.483,12.965c0.4,4.289,0.652,8.591,0.97,12.887
		c-0.089,0.03-0.177,0.061-0.266,0.091c-0.215-0.369-0.45-0.728-0.64-1.109c-4.535-9.104-10.075-17.565-16.309-25.586
		c-0.271-0.35-0.484-0.773-0.617-1.196c-4.176-13.277-9.931-25.784-18.048-37.144c-0.227-0.316-0.434-0.647-0.642-0.977
		C270.907,80.019,270.925,79.943,270.91,79.678z"/>
	<path fill-rule="evenodd" clip-rule="evenodd" d="M231.612,385.25c1.893-0.611,3.796-1.192,5.677-1.84
		c7.045-2.427,13.511-6.008,19.742-10.03c6.158-3.976,12.018-8.359,16.988-13.775c2.406-2.623,4.449-5.578,6.653-8.386
		c0.075-0.097,0.112-0.223,0.28-0.568c-1.716,0.168-3.281,0.247-4.823,0.484c-13.688,2.114-27.435,3.596-41.294,3.883
		c-2.273,0.047-4.547,0.119-6.821,0.177c-0.305,0.008-0.609,0.001-0.965-0.209c1.312-0.672,2.618-1.353,3.935-2.014
		c9.152-4.596,17.506-10.31,24.685-17.664c3.239-3.317,5.969-7.025,8.386-10.971c0.274-0.446,0.446-0.956,0.711-1.535
		c-0.388-0.034-0.586-0.101-0.758-0.059c-4.13,1.013-8.334,0.705-12.516,0.666c-7.936-0.073-15.827-0.814-23.704-1.725
		c-0.837-0.097-1.678-0.173-2.567-0.416c0.27-0.088,0.538-0.182,0.811-0.264c7.617-2.302,15.116-4.917,22.239-8.509
		c1.535-0.773,3.089-1.528,4.552-2.426c1.389-0.852,2.835-1.299,4.453-1.486c11.456-1.328,22.435-4.498,33.132-8.721
		c1.689-0.667,3.358-1.387,5.043-2.066c0.44-0.178,0.906-0.294,1.56-0.502c-0.135,0.639-0.193,1.106-0.332,1.548
		c-1.67,5.283-4.391,10.032-7.437,14.616c-5.225,7.863-11.117,15.204-17.364,22.271c-0.816,0.923-1.526,1.939-2.281,2.916
		c-0.076,0.099-0.122,0.221-0.287,0.526c19.437-3.497,37.207-10.601,53.259-21.944c0.067,0.08,0.136,0.161,0.204,0.241
		c-0.259,0.577-0.496,1.165-0.778,1.73c-3.412,6.844-7.87,12.983-12.709,18.867c-8.328,10.127-17.314,19.645-26.691,28.798
		c-0.34,0.332-0.777,0.58-1.202,0.803c-11.781,6.185-24.354,10.312-37.014,14.206c-3.967,1.22-7.982,2.278-11.978,3.404
		c-0.241,0.068-0.497,0.084-0.746,0.125C231.64,385.352,231.626,385.301,231.612,385.25z"/>
	<path fill-rule="evenodd" clip-rule="evenodd" d="M96.437,325.428c15.368,7.607,31.404,11.447,48.803,8.814
		c-5.176-4.663-9.667-9.729-13.584-15.297c-3.897-5.539-7.789-11.081-11.683-16.621c0.084-0.082,0.167-0.165,0.251-0.247
		c0.364,0.228,0.737,0.442,1.091,0.686c6.839,4.702,13.889,9.15,21.687,11.974c5.375,1.947,9.355,5.551,13.607,8.963
		c6.367,5.108,12.924,9.947,20.136,13.82c2.485,1.335,5.044,2.533,7.569,3.795c0.314,0.157,0.626,0.316,1.172,0.592
		c-1.401,0.58-2.593,1.135-3.827,1.573c-4.621,1.64-9.439,2.344-14.281,2.91c-10.224,1.195-20.494,1.188-30.764,1.166
		c-0.382-0.001-0.763,0-1.193,0c5.069,7.533,38.453,25.037,50.903,26.617c-0.667,0.304-1.096,0.532-1.548,0.7
		c-2.891,1.079-5.94,1.355-8.966,1.729c-10.52,1.302-21.071,1.306-31.629,0.64c-6.386-0.403-12.77-0.864-19.143-1.434
		c-1.715-0.153-3.459-0.612-5.064-1.248c-12.322-4.881-23.636-11.61-34.545-19.062c-3.188-2.177-6.362-4.374-9.542-6.562
		c0.042-0.07,0.083-0.141,0.125-0.211c0.375,0.217,0.757,0.421,1.123,0.651c8.351,5.258,17.27,9.253,26.785,11.865
		c7.6,2.086,15.287,3.68,23.24,3.281c2.236-0.112,4.466-0.337,7-0.533c-0.67-0.611-1.138-1.032-1.599-1.459
		c-7.219-6.695-14.499-13.327-21.636-20.107c-4.881-4.637-9.332-9.688-13.39-15.071c-0.409-0.543-0.805-1.094-1.208-1.642
		C96.363,325.617,96.4,325.522,96.437,325.428z"/>
	<path fill-rule="evenodd" clip-rule="evenodd" d="M213.773,57.427c2.459-0.402,4.908-0.875,7.378-1.193
		c6.787-0.872,13.616-1.026,20.438-0.762c5.937,0.229,11.861,0.796,17.79,1.225c1.441,0.104,2.879,0.25,4.364,0.256
		c-13.953-13.698-29.813-24.4-48.254-31.125c0.005-0.127,0.009-0.255,0.014-0.382c1.317-0.204,2.634-0.576,3.952-0.583
		c6.887-0.038,13.777-0.095,20.661,0.067c9.438,0.222,18.733,1.869,28.062,3.144c2.347,0.321,4.669,0.817,7.014,1.152
		c3.374,0.482,6.403,1.857,9.342,3.479c8.815,4.87,16.925,10.779,24.788,17.028c4.246,3.375,8.333,6.95,12.489,10.438
		c0.288,0.242,0.556,0.508,0.735,0.899c-0.408-0.287-0.817-0.573-1.224-0.862c-10.942-7.771-22.722-13.808-35.733-17.32
		c-6.254-1.688-12.618-2.338-19.294-2.24c0.375,0.438,0.646,0.772,0.935,1.091c6.594,7.313,13.218,14.598,19.773,21.944
		c4.835,5.417,9.062,11.299,12.959,17.419c0.223,0.349,0.412,0.718,0.55,1.196c-14.663-8.693-30.271-13.789-47.299-12.934
		c3.774,5.442,7.801,10.858,11.398,16.546c3.598,5.689,6.766,11.651,10.122,17.494c-0.084,0.068-0.167,0.137-0.25,0.206
		c-0.218-0.149-0.452-0.278-0.649-0.45c-7.943-6.956-16.708-12.656-26.233-17.2c-0.601-0.287-1.191-0.688-1.648-1.168
		c-3.024-3.176-5.989-6.407-9.013-9.584c-5.963-6.265-12.97-11.19-20.291-15.704c-0.964-0.594-1.93-1.186-2.895-1.778
		C213.76,57.628,213.767,57.528,213.773,57.427z"/>
	<path fill-rule="evenodd" clip-rule="evenodd" d="M366.742,175.979c0.289,0.555,0.661,1.082,0.854,1.668
		c1.445,4.405,2.991,8.782,4.244,13.242c2.103,7.483,3.288,15.159,4.302,22.852c0.984,7.468,1.829,14.955,2.689,22.439
		c0.102,0.88,0.045,1.825-0.163,2.686c-1.984,8.201-3.913,16.445-7.054,24.281c-3.596,8.968-7.658,17.749-11.521,26.609
		c-0.103,0.234-0.244,0.452-0.489,0.641c4.492-9.447,6.765-19.473,8.026-29.782c1.271-10.387,0.937-20.648-1.889-30.751
		c-0.165-0.101-0.33-0.202-0.495-0.304c-0.277,0.426-0.554,0.853-0.833,1.276c-2.001,3.036-4.045,6.044-5.996,9.111
		c-6.015,9.461-12.159,18.829-19.332,27.473c-1.719,2.071-3.506,4.085-5.448,6.044c0.094-0.346,0.175-0.694,0.283-1.035
		c3.489-10.957,4.367-22.203,3.579-33.604c-0.324-4.688-1.654-9.186-3.274-13.587c-0.161-0.439-0.419-0.845-0.708-1.417
		c-0.322,0.438-0.606,0.715-0.759,1.05c-1.384,3.029-3.428,5.617-5.687,7.987c-6.61,6.938-13.333,13.772-20.014,20.645
		c-0.062,0.064-0.157,0.098-0.422,0.254c0.201-0.479,0.328-0.796,0.467-1.108c3.666-8.266,6.585-16.785,8.685-25.583
		c0.008-0.032,0.024-0.062,0.027-0.094c0.256-3.341,1.82-6.103,3.581-8.881c5.855-9.246,9.826-19.362,13.289-29.692
		c0.646-1.928,1.307-3.852,1.995-5.88c1.789,2.205,3.062,4.557,4.061,7.071c3.221,8.11,5.45,16.509,7.17,25.043
		c1.024,5.089,1.839,10.22,2.754,15.33c0.062,0.349,0.172,0.688,0.313,1.244c5.29-8.45,8.752-17.51,11.708-26.779
		c2.95-9.248,5.247-18.644,5.66-28.427C366.479,175.994,366.61,175.986,366.742,175.979z"/>
	<path fill-rule="evenodd" clip-rule="evenodd" d="M32.103,296.635c1.013,0.989,2.033,1.972,3.037,2.971
		c5.418,5.388,10.924,10.674,17.148,15.15c5.122,3.684,10.575,6.707,16.67,8.47c0.237,0.068,0.48,0.113,0.896,0.21
		c-1.195-3.003-2.257-5.886-3.478-8.7c-3.913-9.025-7.555-18.154-10.457-27.558c-1.405-4.554-2.584-9.177-3.862-13.771
		c-0.059-0.212-0.084-0.434-0.056-0.718c10.768,13.188,23.735,23.229,40.329,28.372c-4.762-12.684-6.538-25.96-8.47-39.253
		c0.258,0.435,0.521,0.865,0.772,1.303c4.561,7.928,10.163,15.079,16.414,21.719c1.319,1.4,2.323,2.859,3.103,4.599
		c4.186,9.346,8.815,18.462,14.762,26.833c1.896,2.668,4.083,5.129,6.147,7.677c0.342,0.423,0.73,0.808,1.303,1.437
		c-1.796-0.12-3.329-0.176-4.852-0.333c-6.187-0.635-12.095-2.429-17.826-4.715c-6.263-2.499-12.4-5.312-18.592-7.988
		c-1.816-0.784-3.629-1.577-5.453-2.346c-0.437-0.184-0.908-0.284-1.385-0.431c-0.028,2.341,8.72,16.742,15.104,24.998
		c5.999,7.759,12.68,14.86,20.377,20.989c-0.055,0.087-0.11,0.174-0.166,0.261c-1.483-0.383-2.962-0.783-4.45-1.146
		c-8.946-2.177-17.319-5.854-25.577-9.814c-9.222-4.423-18.269-9.176-27.035-14.456c-1.915-1.154-3.37-2.758-4.731-4.445
		c-4.588-5.688-9.203-11.357-13.631-17.169c-2.602-3.414-4.594-7.228-5.97-11.327c-0.08-0.237-0.141-0.479-0.211-0.72
		C32.01,296.7,32.057,296.668,32.103,296.635z"/>
	<path fill-rule="evenodd" clip-rule="evenodd" d="M148.931,384.367c21.206,2.763,41.406-0.349,60.457-10.17
		c0.002-0.139,0.005-0.277,0.007-0.415c-1.018-0.357-2.029-0.733-3.054-1.07c-8.289-2.726-16.612-5.351-24.862-8.19
		c-7.609-2.619-15.127-5.496-22.25-9.297c-0.284-0.151-0.567-0.304-0.852-0.569c8.366,0.141,16.622-0.602,24.756-2.579
		c8.185-1.99,15.765-5.258,22.612-10.352c-12.605-4.069-23.445-11.333-34.579-18.044c0.034-0.093,0.068-0.185,0.103-0.277
		c1.094,0.147,2.188,0.298,3.282,0.44c8.65,1.128,17.324,1.816,26.047,1.105c2.24-0.183,4.198,0.715,6.246,1.257
		c8.103,2.147,16.256,4.067,24.609,4.896c4.555,0.451,9.143,0.57,13.716,0.835c0.323,0.019,0.647,0.002,1.234,0.002
		c-0.368,0.398-0.586,0.643-0.812,0.878c-5.068,5.292-11.085,9.281-17.48,12.758c-7.758,4.218-15.544,8.371-23.711,11.763
		c-0.447,0.185-0.877,0.412-1.314,0.758c18.839,5.764,37.983,6.088,57.321,3.031c0.024,0.08,0.049,0.161,0.073,0.242
		c-0.401,0.349-0.794,0.709-1.206,1.045c-6.292,5.12-13.336,9.021-20.64,12.439c-10.405,4.871-21.015,9.261-31.819,13.186
		c-3.046,1.106-6.116,1.017-9.22,0.984c-5.621-0.058-11.251-0.019-16.859-0.341c-5.146-0.295-10.284-0.89-15.396-1.578
		c-5.242-0.706-10.446-1.685-15.666-2.548C149.424,384.514,149.179,384.431,148.931,384.367z"/>
	<path fill-rule="evenodd" clip-rule="evenodd" d="M347.963,162.131c1.547-19.623-0.985-38.713-7.505-57.431
		c0.622,0.48,1.293,0.909,1.856,1.45c5.289,5.074,10.086,10.578,14.349,16.543c6.501,9.096,12.347,18.613,18.211,28.123
		c1.97,3.193,3.488,6.416,3.975,10.188c0.705,5.469,1.889,10.881,2.49,16.358c0.573,5.223,0.79,10.496,0.932,15.754
		c0.151,5.681,0.034,11.37,0.19,17.062c-0.178-2.454-0.394-4.905-0.523-7.361c-0.287-5.423-1.606-10.647-3.042-15.841
		c-2.609-9.437-6.282-18.426-11.712-26.62c-1.321-1.994-2.908-3.813-4.393-5.698c-0.205-0.26-0.52-0.435-1.005-0.829
		c-0.241,1.09-0.495,1.944-0.613,2.817c-0.997,7.367-1.849,14.757-2.979,22.104c-1.408,9.14-2.962,18.263-5.97,27.057
		c-0.093,0.272-0.198,0.541-0.408,1.112c-2.719-17.223-8.775-32.579-21.139-45.247c-0.162,1.462-0.269,2.682-0.437,3.892
		c-0.766,5.497-2.498,10.739-4.335,15.94c-2.074,5.872-4.274,11.7-6.422,17.546c-0.084,0.23-0.191,0.451-0.404,0.946
		c-0.073-1.568-0.138-2.846-0.192-4.123c-0.389-9.111-1.7-18.09-3.764-26.971c-0.247-1.062-0.055-2.251,0.062-3.369
		c0.748-7.083,1.147-14.182,1.077-21.305c-0.063-6.354-0.832-12.631-2.009-18.866c-0.083-0.443-0.142-0.891-0.246-1.554
		c0.417,0.269,0.691,0.45,0.971,0.624c5.693,3.561,10.302,8.292,14.551,13.422c5.6,6.76,10.968,13.687,15.666,21.116
		c0.726,1.146,1.617,2.188,2.431,3.277C347.738,162.209,347.851,162.17,347.963,162.131z"/>
	<path fill-rule="evenodd" clip-rule="evenodd" d="M196.88,40.534c-0.601-0.322-1.168-0.75-1.808-0.95
		c-4.577-1.435-9.115-3.041-13.767-4.185c-11.96-2.94-24.133-4.008-36.439-3.536c-1.61,0.062-3.218,0.223-4.91,0.17
		c1.219-0.772,2.408-1.594,3.659-2.308c7.921-4.518,16.259-8.109,24.934-10.879c9.764-3.116,19.571-6.097,29.385-9.05
		c1-0.301,2.186-0.078,3.273,0.027c6.27,0.604,12.548,1.139,18.8,1.901c8.521,1.038,16.854,3.024,25.1,5.392
		c2.396,0.688,4.796,1.365,7.16,2.202c-2.597-0.41-5.194-0.815-7.79-1.23c-14.349-2.292-28.547-1.854-42.499,2.474
		c-2.53,0.785-4.959,1.905-7.413,2.921c-0.537,0.222-0.983,0.661-1.684,1.146c0.894,0.446,1.527,0.812,2.198,1.09
		c6.171,2.563,12.441,4.91,18.5,7.715c7.325,3.393,14.495,7.129,21.683,10.812c1.914,0.979,3.648,2.308,5.404,3.553
		c-14.468-1.688-28.409,0.103-41.883,5.493c-2.2,0.88-4.275,1.994-5.959,3.588c10.89,4.214,19.929,11.433,29.416,17.911
		c1.636,1.117,3.245,2.273,4.864,3.414c0.049,0.034,0.075,0.101,0.117,0.16c-2.354-0.577-4.686-1.213-7.046-1.717
		c-7.477-1.594-15.031-2.611-22.677-2.875c-1.993-0.069-3.873-0.416-5.755-1.178c-12.12-4.914-24.675-8.198-37.665-9.79
		c-0.547-0.067-1.091-0.157-1.637-0.239c-0.025-0.004-0.045-0.039-0.181-0.163c0.348-0.305,0.678-0.624,1.037-0.905
		c5.031-3.947,10.512-7.16,16.271-9.91c7.587-3.624,15.312-6.919,23.318-9.519c0.862-0.28,1.758-0.453,2.631-0.703
		c0.444-0.127,0.871-0.313,1.307-0.473C196.845,40.773,196.862,40.654,196.88,40.534z"/>
	<path fill-rule="evenodd" clip-rule="evenodd" d="M26.029,232.645c-1.01-2.374-2.104-4.716-3.014-7.127
		c-3.149-8.347-5.188-16.997-6.834-25.744c-0.45-2.392-0.876-4.793-1.159-7.208c-0.356-3.045,0.359-6.017,0.958-8.973
		c0.776-3.839,1.646-7.66,2.651-11.485c0.255,5.952,1.436,11.694,3.212,17.521c5.668-9.25,10.112-19.003,16.621-27.571
		c-0.803,5.01-0.891,10-0.585,15.01c0.309,5.053,1.743,9.792,3.849,14.598c3.444-6.835,8.423-12.303,13.227-18.178
		c0.333,2.481,0.542,4.743,0.954,6.966c1.034,5.583,2.177,11.145,3.222,16.725c0.122,0.649,0.054,1.421-0.185,2.036
		c-2.228,5.744-4.628,11.424-6.729,17.214c-1.034,2.851-1.542,5.893-2.293,8.847c-0.093,0.365-0.217,0.723-0.392,1.298
		c-0.304-0.491-0.498-0.808-0.695-1.121c-3.472-5.521-5.648-11.59-7.506-17.792c-1.555-5.189-3.107-10.379-4.663-15.568
		c-0.083-0.274-0.189-0.542-0.35-0.998c-6.153,13.261-9.607,26.994-9.996,41.477C26.224,232.594,26.126,232.619,26.029,232.645z"/>
	<path fill-rule="evenodd" clip-rule="evenodd" fill="#FFFFFF" d="M83.601,76.359c-9.909,0.027-17.999-8.019-18.039-17.942
		c-0.04-9.897,8.023-18.003,17.939-18.037c9.988-0.033,18.076,8.015,18.075,17.985C101.575,68.302,93.553,76.333,83.601,76.359z
		 M93.396,71.252c2.443,0.046,3.301-0.976,2.849-2.781c-0.351-1.398-0.857-2.816-1.591-4.048
		c-4.233-7.105-9.916-12.817-17.026-17.039c-1.386-0.823-3.027-1.339-4.619-1.657c-1.566-0.312-2.521,0.647-2.224,2.208
		c0.292,1.531,0.77,3.115,1.551,4.45c4.25,7.258,10.049,13.029,17.295,17.296C90.998,70.487,92.585,70.921,93.396,71.252z"/>
	<path fill-rule="evenodd" clip-rule="evenodd" d="M93.396,71.252c-0.811-0.331-2.397-0.765-3.766-1.57
		c-7.246-4.267-13.045-10.038-17.295-17.296c-0.782-1.335-1.259-2.919-1.551-4.45c-0.297-1.561,0.658-2.521,2.224-2.208
		c1.592,0.317,3.233,0.834,4.619,1.657c7.111,4.222,12.793,9.934,17.026,17.039c0.734,1.232,1.24,2.65,1.591,4.048
		C96.697,70.276,95.839,71.298,93.396,71.252z"/>
</g>
</svg>
